<mxfile host="app.diagrams.net" agent="Mozilla/5.0 (Macintosh; Intel Mac OS X 10_15_7) AppleWebKit/537.36 (KHTML, like Gecko) Chrome/135.0.0.0 Safari/537.36" version="26.2.12">
  <diagram name="第 1 页" id="Oh0Vvxp9HUmxSkq_ZDcn">
    <mxGraphModel dx="1733" dy="1007" grid="1" gridSize="10" guides="1" tooltips="1" connect="1" arrows="1" fold="1" page="1" pageScale="1" pageWidth="2339" pageHeight="3300" math="0" shadow="0">
      <root>
        <mxCell id="0" />
        <mxCell id="1" parent="0" />
        <mxCell id="u5_doABSU_G4B-5TbRay-16" value="" style="rounded=0;whiteSpace=wrap;html=1;fillColor=#d0cee2;strokeColor=#56517e;" vertex="1" parent="1">
          <mxGeometry x="935" y="380" width="150" height="120" as="geometry" />
        </mxCell>
        <mxCell id="u5_doABSU_G4B-5TbRay-1" value="" style="rounded=0;whiteSpace=wrap;html=1;fillColor=#fff2cc;strokeColor=#d6b656;" vertex="1" parent="1">
          <mxGeometry x="230" y="380" width="360" height="120" as="geometry" />
        </mxCell>
        <mxCell id="u5_doABSU_G4B-5TbRay-5" value="" style="rounded=0;whiteSpace=wrap;html=1;fillColor=#ffe6cc;strokeColor=#d79b00;" vertex="1" parent="1">
          <mxGeometry x="230" y="160" width="1110" height="160" as="geometry" />
        </mxCell>
        <mxCell id="u5_doABSU_G4B-5TbRay-21" value="" style="edgeStyle=orthogonalEdgeStyle;rounded=0;orthogonalLoop=1;jettySize=auto;html=1;entryX=0.367;entryY=0.994;entryDx=0;entryDy=0;entryPerimeter=0;dashed=1;" edge="1" parent="1" source="u5_doABSU_G4B-5TbRay-2" target="u5_doABSU_G4B-5TbRay-12">
          <mxGeometry relative="1" as="geometry" />
        </mxCell>
        <mxCell id="u5_doABSU_G4B-5TbRay-2" value="&lt;font style=&quot;font-size: 16px;&quot;&gt;&lt;b&gt;Alarm&lt;/b&gt;&lt;/font&gt;" style="rounded=0;whiteSpace=wrap;html=1;" vertex="1" parent="1">
          <mxGeometry x="250" y="450" width="90" height="40" as="geometry" />
        </mxCell>
        <mxCell id="u5_doABSU_G4B-5TbRay-25" value="" style="edgeStyle=orthogonalEdgeStyle;rounded=0;orthogonalLoop=1;jettySize=auto;html=1;entryX=0.5;entryY=1;entryDx=0;entryDy=0;exitX=0.671;exitY=-0.04;exitDx=0;exitDy=0;exitPerimeter=0;dashed=1;" edge="1" parent="1" source="u5_doABSU_G4B-5TbRay-3" target="u5_doABSU_G4B-5TbRay-11">
          <mxGeometry relative="1" as="geometry">
            <Array as="points">
              <mxPoint x="504" y="437" />
              <mxPoint x="505" y="437" />
            </Array>
          </mxGeometry>
        </mxCell>
        <mxCell id="u5_doABSU_G4B-5TbRay-3" value="&lt;font style=&quot;font-size: 16px;&quot;&gt;&lt;b&gt;Alarm | Metric | Trace&lt;/b&gt;&lt;/font&gt;" style="rounded=0;whiteSpace=wrap;html=1;" vertex="1" parent="1">
          <mxGeometry x="370" y="450" width="200" height="40" as="geometry" />
        </mxCell>
        <mxCell id="u5_doABSU_G4B-5TbRay-4" value="&lt;font style=&quot;font-size: 18px;&quot;&gt;&lt;b&gt;Observability&lt;/b&gt;&lt;/font&gt;" style="text;html=1;align=center;verticalAlign=middle;whiteSpace=wrap;rounded=0;" vertex="1" parent="1">
          <mxGeometry x="360" y="410" width="60" height="30" as="geometry" />
        </mxCell>
        <mxCell id="u5_doABSU_G4B-5TbRay-32" value="" style="edgeStyle=orthogonalEdgeStyle;rounded=0;orthogonalLoop=1;jettySize=auto;html=1;" edge="1" parent="1" source="u5_doABSU_G4B-5TbRay-8" target="u5_doABSU_G4B-5TbRay-13">
          <mxGeometry relative="1" as="geometry" />
        </mxCell>
        <mxCell id="u5_doABSU_G4B-5TbRay-8" value="&lt;div&gt;&lt;span style=&quot;font-size: 18px;&quot;&gt;&lt;b&gt;&lt;br&gt;&lt;/b&gt;&lt;/span&gt;&lt;/div&gt;&lt;div&gt;&lt;span style=&quot;font-size: 18px;&quot;&gt;&lt;b&gt;Decision&lt;/b&gt;&lt;/span&gt;&lt;/div&gt;&lt;div style=&quot;text-align: left;&quot;&gt;&lt;font style=&quot;font-size: 16px;&quot;&gt;&lt;b&gt;&amp;nbsp;Burst Traffic&amp;nbsp; | Machine Failure&lt;/b&gt;&lt;/font&gt;&lt;/div&gt;&lt;div style=&quot;text-align: left;&quot;&gt;&lt;font style=&quot;font-size: 16px;&quot;&gt;&lt;b&gt;&lt;span style=&quot;caret-color: rgba(0, 0, 0, 0.9); color: rgba(0, 0, 0, 0.9); font-family: &amp;quot;PingFang SC&amp;quot;, -apple-system, BlinkMacSystemFont, &amp;quot;Segoe UI&amp;quot;, Roboto, Ubuntu, &amp;quot;Helvetica Neue&amp;quot;, Helvetica, Arial, &amp;quot;Hiragino Sans GB&amp;quot;, &amp;quot;Microsoft YaHei UI&amp;quot;, &amp;quot;Microsoft YaHei&amp;quot;, &amp;quot;Source Han Sans CN&amp;quot;, sans-serif; background-color: rgb(255, 255, 255);&quot;&gt;&amp;nbsp;Troubleshooting&amp;nbsp;&lt;/span&gt;&lt;span style=&quot;background-color: light-dark(rgb(255, 255, 255), rgb(18, 18, 18)); color: light-dark(rgba(0, 0, 0, 0.9), rgb(237, 237, 237)); font-family: &amp;quot;PingFang SC&amp;quot;, -apple-system, BlinkMacSystemFont, &amp;quot;Segoe UI&amp;quot;, Roboto, Ubuntu, &amp;quot;Helvetica Neue&amp;quot;, Helvetica, Arial, &amp;quot;Hiragino Sans GB&amp;quot;, &amp;quot;Microsoft YaHei UI&amp;quot;, &amp;quot;Microsoft YaHei&amp;quot;, &amp;quot;Source Han Sans CN&amp;quot;, sans-serif; caret-color: light-dark(rgba(0, 0, 0, 0.9), rgb(237, 237, 237));&quot;&gt;| Q&amp;amp;A&lt;/span&gt;&lt;/b&gt;&lt;/font&gt;&lt;/div&gt;&lt;div&gt;&lt;span style=&quot;font-size: 18px;&quot;&gt;&lt;br&gt;&lt;/span&gt;&lt;/div&gt;" style="rounded=0;whiteSpace=wrap;html=1;" vertex="1" parent="1">
          <mxGeometry x="630" y="220" width="250" height="80" as="geometry" />
        </mxCell>
        <mxCell id="u5_doABSU_G4B-5TbRay-31" value="" style="edgeStyle=orthogonalEdgeStyle;rounded=0;orthogonalLoop=1;jettySize=auto;html=1;" edge="1" parent="1" source="u5_doABSU_G4B-5TbRay-11" target="u5_doABSU_G4B-5TbRay-8">
          <mxGeometry relative="1" as="geometry" />
        </mxCell>
        <mxCell id="u5_doABSU_G4B-5TbRay-11" value="&lt;div&gt;&lt;b style=&quot;&quot;&gt;&lt;font style=&quot;font-size: 18px;&quot;&gt;Prediction&lt;/font&gt;&lt;/b&gt;&lt;/div&gt;" style="rounded=0;whiteSpace=wrap;html=1;" vertex="1" parent="1">
          <mxGeometry x="430" y="220" width="150" height="80" as="geometry" />
        </mxCell>
        <mxCell id="u5_doABSU_G4B-5TbRay-30" value="" style="edgeStyle=orthogonalEdgeStyle;rounded=0;orthogonalLoop=1;jettySize=auto;html=1;" edge="1" parent="1" source="u5_doABSU_G4B-5TbRay-12" target="u5_doABSU_G4B-5TbRay-11">
          <mxGeometry relative="1" as="geometry" />
        </mxCell>
        <mxCell id="u5_doABSU_G4B-5TbRay-12" value="&lt;font style=&quot;font-size: 18px;&quot;&gt;&lt;b&gt;Perception&lt;/b&gt;&lt;/font&gt;&lt;div&gt;&lt;font style=&quot;font-size: 16px;&quot;&gt;&lt;b&gt;Passive | Active&lt;/b&gt;&lt;/font&gt;&lt;/div&gt;" style="rounded=0;whiteSpace=wrap;html=1;" vertex="1" parent="1">
          <mxGeometry x="240" y="220" width="150" height="80" as="geometry" />
        </mxCell>
        <mxCell id="u5_doABSU_G4B-5TbRay-45" value="" style="edgeStyle=orthogonalEdgeStyle;rounded=0;orthogonalLoop=1;jettySize=auto;html=1;entryX=0.44;entryY=0.008;entryDx=0;entryDy=0;entryPerimeter=0;" edge="1" parent="1">
          <mxGeometry relative="1" as="geometry">
            <mxPoint x="1011" y="300" as="sourcePoint" />
            <mxPoint x="1007" y="380.96000000000004" as="targetPoint" />
            <Array as="points">
              <mxPoint x="1007" y="300" />
              <mxPoint x="1007" y="341" />
              <mxPoint x="1008" y="381" />
            </Array>
          </mxGeometry>
        </mxCell>
        <mxCell id="u5_doABSU_G4B-5TbRay-13" value="&lt;span style=&quot;font-size: 18px;&quot;&gt;&lt;b&gt;Planning&lt;/b&gt;&lt;/span&gt;" style="rounded=0;whiteSpace=wrap;html=1;" vertex="1" parent="1">
          <mxGeometry x="930" y="220" width="150" height="80" as="geometry" />
        </mxCell>
        <mxCell id="u5_doABSU_G4B-5TbRay-40" value="" style="edgeStyle=orthogonalEdgeStyle;rounded=0;orthogonalLoop=1;jettySize=auto;html=1;dashed=1;" edge="1" parent="1" source="u5_doABSU_G4B-5TbRay-14" target="u5_doABSU_G4B-5TbRay-19">
          <mxGeometry relative="1" as="geometry" />
        </mxCell>
        <mxCell id="u5_doABSU_G4B-5TbRay-14" value="&lt;span style=&quot;font-size: 18px;&quot;&gt;&lt;b&gt;Execution&lt;/b&gt;&lt;/span&gt;" style="rounded=0;whiteSpace=wrap;html=1;" vertex="1" parent="1">
          <mxGeometry x="1130" y="220" width="150" height="80" as="geometry" />
        </mxCell>
        <mxCell id="u5_doABSU_G4B-5TbRay-34" value="" style="edgeStyle=orthogonalEdgeStyle;rounded=0;orthogonalLoop=1;jettySize=auto;html=1;dashed=1;" edge="1" parent="1" source="u5_doABSU_G4B-5TbRay-15" target="u5_doABSU_G4B-5TbRay-8">
          <mxGeometry relative="1" as="geometry">
            <Array as="points">
              <mxPoint x="738" y="320" />
              <mxPoint x="738" y="320" />
            </Array>
          </mxGeometry>
        </mxCell>
        <mxCell id="u5_doABSU_G4B-5TbRay-15" value="&lt;div&gt;&lt;font style=&quot;font-size: 16px;&quot;&gt;&lt;br&gt;&lt;/font&gt;&lt;/div&gt;&lt;font style=&quot;font-size: 16px;&quot;&gt;GPT | Qwen | Deepseek&lt;/font&gt;" style="rounded=0;whiteSpace=wrap;html=1;fillColor=#dae8fc;strokeColor=#6c8ebf;" vertex="1" parent="1">
          <mxGeometry x="620" y="380" width="280" height="120" as="geometry" />
        </mxCell>
        <mxCell id="u5_doABSU_G4B-5TbRay-39" value="" style="edgeStyle=orthogonalEdgeStyle;rounded=0;orthogonalLoop=1;jettySize=auto;html=1;" edge="1" parent="1" source="u5_doABSU_G4B-5TbRay-16">
          <mxGeometry relative="1" as="geometry">
            <mxPoint x="1130" y="260" as="targetPoint" />
            <Array as="points">
              <mxPoint x="1100" y="430" />
              <mxPoint x="1100" y="260" />
            </Array>
          </mxGeometry>
        </mxCell>
        <mxCell id="u5_doABSU_G4B-5TbRay-17" value="" style="shape=actor;whiteSpace=wrap;html=1;" vertex="1" parent="1">
          <mxGeometry x="970" y="410" width="40" height="60" as="geometry" />
        </mxCell>
        <mxCell id="u5_doABSU_G4B-5TbRay-18" value="&lt;font style=&quot;font-size: 16px;&quot;&gt;&lt;b&gt;User&lt;/b&gt;&lt;/font&gt;" style="text;html=1;align=center;verticalAlign=middle;whiteSpace=wrap;rounded=0;" vertex="1" parent="1">
          <mxGeometry x="1010" y="430" width="60" height="30" as="geometry" />
        </mxCell>
        <mxCell id="u5_doABSU_G4B-5TbRay-19" value="&lt;font style=&quot;font-size: 16px;&quot;&gt;&lt;b&gt;Operations Tool&lt;/b&gt;&lt;/font&gt;" style="rounded=0;whiteSpace=wrap;html=1;fillColor=#bac8d3;strokeColor=#23445d;" vertex="1" parent="1">
          <mxGeometry x="1130" y="380" width="150" height="120" as="geometry" />
        </mxCell>
        <mxCell id="u5_doABSU_G4B-5TbRay-27" value="&lt;font style=&quot;font-size: 20px;&quot;&gt;&lt;b style=&quot;&quot;&gt;AIOPS&lt;/b&gt;&lt;/font&gt;" style="text;html=1;align=center;verticalAlign=middle;whiteSpace=wrap;rounded=0;" vertex="1" parent="1">
          <mxGeometry x="710" y="183" width="60" height="30" as="geometry" />
        </mxCell>
        <mxCell id="u5_doABSU_G4B-5TbRay-28" value="&lt;font style=&quot;font-size: 16px;&quot;&gt;&lt;b&gt;SFT/AIOPS Model&lt;/b&gt;&lt;/font&gt;" style="rounded=0;whiteSpace=wrap;html=1;" vertex="1" parent="1">
          <mxGeometry x="688.75" y="470" width="142.5" height="25" as="geometry" />
        </mxCell>
        <mxCell id="u5_doABSU_G4B-5TbRay-29" value="&lt;font style=&quot;font-size: 16px;&quot;&gt;&lt;b&gt;General-Proposed Model&lt;/b&gt;&lt;/font&gt;" style="rounded=0;whiteSpace=wrap;html=1;" vertex="1" parent="1">
          <mxGeometry x="659.0600000000001" y="390" width="201.88" height="40" as="geometry" />
        </mxCell>
      </root>
    </mxGraphModel>
  </diagram>
</mxfile>
